<?xml version="1.0" encoding="utf-8"?>
<!-- Generator: Adobe Illustrator 24.1.2, SVG Export Plug-In . SVG Version: 6.00 Build 0)  -->
<svg version="1.1" id="Слой_1" xmlns="http://www.w3.org/2000/svg" xmlns:xlink="http://www.w3.org/1999/xlink" x="0px" y="0px"
	 viewBox="0 0 64 64" style="enable-background:new 0 0 64 64;" xml:space="preserve">
<style type="text/css">
	.st0{fill:#EDB213;}
	.st1{fill:none;stroke:#ABCB4E;stroke-width:2;stroke-miterlimit:10;}
	.st2{fill:#179C3E;}
	.st3{fill:#61C3EB;}
</style>
<path class="st0" d="M21.6,6.9c-0.4-0.8-1.4-1.1-2.3-0.8c0-0.1-0.1-0.2-0.1-0.2c-0.5-0.9-1.6-1.2-2.6-0.6c-0.6,0.4-1,1-1,1.6
	c-0.2,0-0.5,0.1-0.7,0.2c-0.9,0.5-1.3,1.6-0.8,2.5c0.2,0.4,0.6,0.7,1.1,0.8c-0.3,0.5-0.3,1.1,0,1.7c0.5,0.9,1.6,1.2,2.6,0.6
	c0.4-0.2,0.6-0.5,0.8-0.8c0.6,0.5,1.5,0.6,2.2,0.2c0.9-0.5,1.3-1.6,0.8-2.5c-0.1-0.2-0.2-0.3-0.4-0.5C21.8,8.6,22,7.7,21.6,6.9z
	 M18.2,9.7c-0.4,0.2-0.8,0.1-1-0.3c-0.2-0.4-0.1-0.8,0.3-1s0.8-0.1,1,0.3C18.7,9,18.6,9.5,18.2,9.7z"/>
<path class="st1" d="M121.3-7.6"/>
<line class="st2" x1="14.2" y1="54.6" x2="14" y2="54.6"/>
<path class="st3" d="M22.2,27.2c-2.8,4.5-4.1,9.1-3.3,14.3c0.5-0.2,0.4-0.6,0.5-0.9c0.4-3.6,1.8-6.9,3.4-10.1c1.5-2.8,3.2-5.5,5-8.1
	c2.8-4,4.5-8.4,4.2-13.4c0-0.1,0.1-0.2,0.1-0.5c1.7,3,2.3,5.9,1.7,9.2c-0.4,2.6-1.5,5-3,7.1c-1.3,1.8-2.6,3.5-3.9,5.2
	c-2.3,2.9-3.7,6.2-3.2,10c0,0.2,0,0.3,0.1,0.5c0,0.1,0.1,0.1,0.2,0.1c0.3,0,0.3-0.2,0.4-0.4c0.5-3.6,2.2-6.6,4.1-9.6
	c0.9-1.5,2.2-2.8,3.2-4.2C34.7,22,36,17,34.7,11.5c-0.1-0.4-0.3-0.9-0.4-1.3c-0.1-0.4-0.3-0.8-0.5-1.1c0.6-0.3,0.8,0.3,1.2,0.6
	c3.6,3.8,3.8,8.2,2.5,13c-0.9,3.2-2.4,6.1-4,8.9c-0.9,1.6-1.9,3.2-2.8,4.8c-0.1,0.2-0.6,0.4-0.2,0.7c0.3,0.2,0.5-0.1,0.7-0.3
	c4.3-5.5,8.5-11,8.6-18.5c0-0.1,0.1-0.1,0.1-0.2c2.9,3.3,1.7,11.1-3,20.3c2.3-2.2,3.9-4.9,4.9-8c0.9-3.1,1.4-6.3,1.6-9.6
	c0.6,0.2,0.6,0.7,0.7,1c1.7,4.5,1.7,9.1,1,13.8c-0.2,1.2-0.5,2.4-0.7,3.5c0,0.2-0.3,0.5,0,0.6c0.3,0.1,0.4-0.1,0.6-0.3
	c0.9-1.2,1.6-2.5,2-3.9c0.4-1.6,0.8-3.1,1-5c0.3,0.4,0.5,0.7,0.6,1c1.6,4.6,2.4,9.3,1.1,14.2c-0.1,0.3-0.2,0.6-0.3,0.9
	c-0.3,0.8-0.6,1.8-1.4,1.9c-0.6,0.1-0.8-1-1.3-1.5c-3.8-4.6-8.7-6.4-14.4-6c-3.9,0.3-7.5,1.5-10.5,4c-1.4,1.1-2.5,2.5-3.4,4
	c-0.4,0.6-0.6,0.5-1.2,0.2c-2-1.2-2.4-3.3-2.6-5.3c-0.6-6.9,2.3-12.3,7.1-16.8C21.7,27.3,21.8,27.3,22.2,27.2z"/>
<path class="st3" d="M50,61.6c1.8,0.9,3.7,1.3,5.8,1.2c4.5-0.2,8-3.3,7.3-7.5c-0.9-5.9-6.3-8.2-10.9-4.6c-2.2,1.7-2.3,1.5-1.6,4
	c0,0.1,0,0.2,0.1,0.3c0.1,0.2,0.2,0.3,0.3,0.2c0.6-0.4,1.5-0.3,1.9-0.9c1-1.3,2.5-1.4,4-1.3c0.3,0,0.6,0.1,0.6,0.5
	c-0.6,0.1-1.3,0.2-1.9,0.3c-0.8,0.2-1.1,0.5-0.5,1.3c0.5,0.6,0.9,1.3,0.9,2.2c0,0.3,0,0.8-0.4,0.9c-0.6,0-0.4-0.5-0.4-0.8
	c-0.1-1.1-0.9-1.8-1.9-1.8c-1.3,0-2.3,0.6-2.5,1.7c-0.2,1.1-0.4,2.3-1.1,3.3C49.3,61.1,49.5,61.4,50,61.6z"/>
<path class="st3" d="M21.9,63.5c3.6-0.1,7.3,0,10.9,0c0,0,0-0.1,0-0.1c3.8,0,7.5,0,11.3,0c1,0,1.6-0.3,2.2-1.2
	c2.5-3.8,2.2-8.9-0.7-12.7c-6.4-8.3-20.2-7.7-26.2,1.3c-2.2,3.3-2.9,6.8-0.8,10.5C19.4,62.7,20.2,63.5,21.9,63.5z M39.1,58.3
	c1,0,1.9,1,1.8,2c0,1.1-0.9,1.9-1.8,1.9c-1,0-2-1.1-1.9-2.1C37.2,59.1,38.2,58.3,39.1,58.3z M24.6,58.4c1.2,0,2,0.8,2,1.9
	c0,1.1-0.8,1.9-1.8,1.9c-1.1,0-2.2-1-2.2-2C22.6,59.3,23.5,58.4,24.6,58.4z"/>
<path class="st3" d="M6.5,62.8c0.8,0.7,1.7,1.1,2.8,1c2.1-0.3,4.3-0.5,6.4-0.7c0.6-0.1,0.8-0.2,0.4-0.8c-0.9-1.5-1.6-3.2-1.7-4.9
	c0-0.5-0.3-0.7-0.7-0.9c-1.4-0.7-2.6-0.3-3.7,1.1c-0.2,0.2-0.2,0.6-0.6,0.4c-0.3-0.1-0.4-0.5-0.3-0.8c0.1-0.4,0.2-0.7,0.4-1
	c0.7-1.2,2.4-1.7,4.1-1.3c0.3,0.1,0.8,0.7,1,0c0.2-0.7,1.1-1.5,0.4-2.3c-1.3-1.4-2.9-2.4-4.1-2.4c-2.9,0-4.7,1-5.9,2.7
	C2.8,56.1,3.6,60.4,6.5,62.8z"/>
<path class="st0" d="M12.7,21.7c0-1.3-1-2.4-2.4-2.6c0-0.1,0-0.3,0-0.4c0-1.5-1.3-2.7-2.8-2.7c-1.1,0-2,0.6-2.5,1.4
	c-0.3-0.1-0.7-0.2-1.1-0.2c-1.6,0-2.8,1.2-2.8,2.7c0,0.7,0.3,1.4,0.8,1.8c-0.7,0.5-1.2,1.3-1.2,2.1c0,1.5,1.3,2.7,2.8,2.7
	c0.6,0,1.2-0.2,1.6-0.5c0.4,1.1,1.4,1.8,2.7,1.8c1.6,0,2.8-1.2,2.8-2.7c0-0.3-0.1-0.6-0.2-0.9C11.8,24,12.7,22.9,12.7,21.7z
	 M6.4,22.8c-0.6,0-1.1-0.5-1.1-1.1c0-0.6,0.5-1.1,1.1-1.1s1.1,0.5,1.1,1.1C7.6,22.3,7.1,22.8,6.4,22.8z"/>
<path class="st0" d="M52.3,9.2c0.1-0.9-0.6-1.7-1.5-1.9c0-0.1,0-0.2,0-0.3c0.1-1-0.7-1.9-1.8-1.9c-0.7-0.1-1.4,0.3-1.8,0.8
	c-0.2-0.1-0.5-0.2-0.7-0.2c-1.1-0.1-2,0.6-2.1,1.6c0,0.5,0.1,0.9,0.4,1.3c-0.5,0.3-0.9,0.8-0.9,1.4c-0.1,1,0.7,1.9,1.8,1.9
	c0.4,0,0.8-0.1,1.1-0.2c0.2,0.7,0.9,1.3,1.7,1.4c1.1,0.1,2-0.6,2.1-1.6c0-0.2,0-0.4-0.1-0.6C51.5,10.7,52.2,10.1,52.3,9.2z M48,9.7
	c-0.4,0-0.7-0.4-0.7-0.8c0-0.4,0.4-0.7,0.8-0.7c0.4,0,0.7,0.4,0.7,0.8C48.8,9.4,48.4,9.7,48,9.7z"/>
<path class="st0" d="M63.9,20.4c-0.3-1.3-1.6-2.1-3-2c0-0.1,0-0.3-0.1-0.4c-0.4-1.4-1.9-2.3-3.4-1.9c-1,0.3-1.8,1-2.1,1.9
	c-0.4,0-0.7,0-1.1,0.1c-1.5,0.4-2.5,1.8-2.1,3.3c0.2,0.7,0.6,1.2,1.2,1.6c-0.6,0.6-0.8,1.5-0.6,2.4c0.4,1.4,1.9,2.3,3.4,1.9
	c0.6-0.1,1.1-0.5,1.5-0.8c0.6,0.9,1.8,1.4,3.1,1.1c1.5-0.4,2.5-1.8,2.1-3.3c-0.1-0.3-0.2-0.6-0.4-0.8C63.6,22.9,64.2,21.6,63.9,20.4
	z M58.1,23c-0.6,0.2-1.2-0.2-1.4-0.8c-0.2-0.6,0.2-1.2,0.8-1.4s1.2,0.2,1.4,0.8C59.1,22.3,58.7,22.9,58.1,23z"/>
<path class="st0" d="M35.4,2.8c-0.2-0.6-0.7-0.9-1.3-0.8c0-0.1,0-0.1,0-0.2c-0.2-0.6-0.8-1-1.5-0.8c-0.4,0.1-0.8,0.5-0.9,0.9
	c-0.2,0-0.3,0-0.5,0c-0.7,0.2-1.1,0.8-0.9,1.4c0.1,0.3,0.3,0.5,0.5,0.7c-0.2,0.3-0.3,0.7-0.2,1c0.2,0.6,0.8,1,1.5,0.8
	c0.3-0.1,0.5-0.2,0.6-0.4c0.3,0.4,0.8,0.6,1.3,0.4c0.7-0.2,1.1-0.8,0.9-1.4c0-0.1-0.1-0.2-0.2-0.3C35.3,3.9,35.6,3.3,35.4,2.8z
	 M32.9,4c-0.3,0.1-0.5-0.1-0.6-0.3c-0.1-0.3,0.1-0.5,0.3-0.6c0.3-0.1,0.5,0.1,0.6,0.3C33.4,3.7,33.2,4,32.9,4z"/>
</svg>
